<svg width="20" height="20" viewBox="0 0 20 20" fill="none" xmlns="http://www.w3.org/2000/svg">
<path d="M10.0002 4.16664C10.9206 4.16664 11.6668 3.42045 11.6668 2.49998C11.6668 1.5795 10.9206 0.833313 10.0002 0.833313C9.07969 0.833313 8.3335 1.5795 8.3335 2.49998C8.3335 3.42045 9.07969 4.16664 10.0002 4.16664Z" fill="black"/>
<path d="M13.7501 11.6667C13.5291 11.6667 13.3171 11.5789 13.1608 11.4226C13.0045 11.2663 12.9167 11.0543 12.9167 10.8333V6.66667H7.08341V10.8333C7.08341 11.0543 6.99562 11.2663 6.83934 11.4226C6.68306 11.5789 6.4711 11.6667 6.25008 11.6667C6.02907 11.6667 5.81711 11.5789 5.66083 11.4226C5.50455 11.2663 5.41675 11.0543 5.41675 10.8333V5.83333C5.41675 5.61232 5.50455 5.40036 5.66083 5.24408C5.81711 5.0878 6.02907 5 6.25008 5H13.7501C13.9711 5 14.1831 5.0878 14.3393 5.24408C14.4956 5.40036 14.5834 5.61232 14.5834 5.83333V10.8333C14.5834 11.0543 14.4956 11.2663 14.3393 11.4226C14.1831 11.5789 13.9711 11.6667 13.7501 11.6667Z" fill="black"/>
<path d="M10.0002 19.1667C9.79286 19.1677 9.59261 19.0915 9.43852 18.9528C9.28443 18.8141 9.18756 18.623 9.16683 18.4167L8.3335 10.0834V7.91669H11.6668V10.0834L10.8335 18.4167C10.8128 18.623 10.7159 18.8141 10.5618 18.9528C10.4077 19.0915 10.2075 19.1677 10.0002 19.1667Z" fill="black"/>
</svg>
