<svg width="20" height="20" viewBox="0 0 20 20" fill="none" xmlns="http://www.w3.org/2000/svg">
<g clip-path="url(#clip0_15951_920)">
<path d="M10.0002 4.16665C10.9206 4.16665 11.6668 3.42045 11.6668 2.49998C11.6668 1.57951 10.9206 0.833313 10.0002 0.833313C9.07969 0.833313 8.3335 1.57951 8.3335 2.49998C8.3335 3.42045 9.07969 4.16665 10.0002 4.16665Z" fill="grey"/>
<path d="M14.5419 10.2083L13.2919 5.62495C13.2532 5.44498 13.1529 5.28413 13.0085 5.17006C12.864 5.05599 12.6842 4.99584 12.5002 4.99995H7.5002C7.31616 4.99584 7.13644 5.05599 6.99195 5.17006C6.84746 5.28413 6.74724 5.44498 6.70853 5.62495L5.45853 10.2083C5.44514 10.4018 5.49966 10.5939 5.6127 10.7515C5.72574 10.9091 5.89022 11.0224 6.0778 11.0717C6.26538 11.1211 6.4643 11.1035 6.64028 11.0219C6.81626 10.9404 6.95828 10.8 7.04187 10.625L8.1252 6.66662H11.8752L12.9585 10.625C12.9972 10.8049 13.0975 10.9658 13.2419 11.0799C13.3864 11.1939 13.5662 11.2541 13.7502 11.25H13.9585C14.0693 11.2268 14.1738 11.1802 14.265 11.1132C14.3562 11.0463 14.432 10.9606 14.4872 10.8619C14.5425 10.7631 14.576 10.6537 14.5854 10.541C14.5948 10.4283 14.58 10.3148 14.5419 10.2083Z" fill="black"/>
<path d="M11.6668 10.0416L11.2501 7.91663H8.75014L8.33347 10.0416L6.2918 13.5416C6.25457 13.606 6.23525 13.6792 6.23585 13.7536C6.23645 13.8279 6.25695 13.9008 6.29522 13.9646C6.33348 14.0284 6.38813 14.0807 6.45347 14.1163C6.51881 14.1518 6.59247 14.1692 6.6668 14.1666H8.75014L9.1668 18.4166C9.1668 18.6376 9.2546 18.8496 9.41088 19.0059C9.56716 19.1622 9.77912 19.25 10.0001 19.25C10.2212 19.25 10.4331 19.1622 10.5894 19.0059C10.7457 18.8496 10.8335 18.6376 10.8335 18.4166L11.2501 14.1666H13.3335C13.4078 14.1692 13.4815 14.1518 13.5468 14.1163C13.6122 14.0807 13.6668 14.0284 13.7051 13.9646C13.7433 13.9008 13.7638 13.8279 13.7644 13.7536C13.765 13.6792 13.7457 13.606 13.7085 13.5416L11.6668 10.0416Z" fill="black"/>
</g>
<defs>
<clipPath id="clip0_15951_920">
<rect width="20" height="20" fill="white"/>
</clipPath>
</defs>
</svg>
